# File created by Blade
# Date/Time:  Fri Jan 16 19:14:28 2015
# Frame Rate: 120.000 fps
#------------------------------------------------------
:FULLY-SPECIFIED
:DEGREES
814
root 18.963487 35.717404 -22.528879 -165.614625 -0.249713 -178.313662
Spine -28.920413 -0.197515 1.083579
Head 18.351388 0.167584 2.953334
LeftShoulder -27.694800 -62.080284 66.571821
LeftArm 54.982888 -33.059929 -2.597933
LeftForeArm 3.164270 -0.000000 23.414588
LeftHand -6.299685 0.000000 -22.711946
LeftHandThumb1 -26.253704 0.000000 33.147579
RightShoulder -13.957602 20.869594 -44.120323
RightArm 45.812793 60.412617 -1.264287
RightForeArm -73.526388 -0.000000 42.804486
RightHand -12.273237 -0.000000 16.182885
RightHandThumb1 -24.326973 -0.000000 -32.862282
LeftUpLeg -4.001773 7.883029 0.220908
LeftLeg -7.604763 -0.000000 0.000000
LeftFoot -20.696845 28.538597 -16.318198
LeftToeBase 23.635789 -0.000000 -0.000000
RightUpLeg -5.984035 -8.862869 1.621022
RightLeg -4.100148 -0.000000 0.000000
RightFoot -19.705317 -22.240143 20.171149
RightToeBase 22.755259 -0.000000 -0.000000
815
root 18.966547 35.718454 -22.526113 -165.664547 -0.223327 -178.301255
Spine -28.885440 -0.213084 1.065895
Head 18.318629 0.247958 3.121947
LeftShoulder -27.620418 -62.222727 66.726531
LeftArm 54.937424 -32.712769 -2.330620
LeftForeArm 2.968465 -0.000000 22.798237
LeftHand -6.034083 -0.000000 -22.637044
LeftHandThumb1 -26.253704 0.000000 33.147579
RightShoulder -13.840787 20.971670 -44.194254
RightArm 45.870335 60.180889 -1.240841
RightForeArm -73.443034 -0.000000 42.164312
RightHand -12.212130 -0.000000 15.756268
RightHandThumb1 -24.326973 -0.000000 -32.862282
LeftUpLeg -3.954395 7.885016 0.241913
LeftLeg -7.597641 -0.000000 0.000000
LeftFoot -20.704904 28.548794 -16.338388
LeftToeBase 23.586662 -0.000000 -0.000000
RightUpLeg -5.944141 -8.836204 1.622904
RightLeg -4.092165 -0.000000 0.000000
RightFoot -19.704974 -22.227854 20.187175
RightToeBase 22.786132 -0.000000 -0.000000
816
root 18.968869 35.719997 -22.522526 -165.715078 -0.188740 -178.289217
Spine -28.842949 -0.210693 1.066160
Head 18.285145 0.404135 3.267796
LeftShoulder -27.575645 -62.402325 66.899125
LeftArm 54.835829 -32.314175 -2.010434
LeftForeArm 2.762013 -0.000000 22.214902
LeftHand -5.651317 -0.000000 -22.270733
LeftHandThumb1 -26.253704 0.000000 33.147579
RightShoulder -13.754497 21.063639 -44.305741
RightArm 46.018633 59.952040 -1.156401
RightForeArm -73.167923 -0.000000 41.520596
RightHand -12.387763 -0.000000 15.881877
RightHandThumb1 -24.326973 -0.000000 -32.862282
LeftUpLeg -3.906174 7.904494 0.257943
LeftLeg -7.594794 -0.000000 0.000000
LeftFoot -20.695321 28.561665 -16.355974
LeftToeBase 23.525652 -0.000000 -0.000000
RightUpLeg -5.914062 -8.832230 1.627762
RightLeg -4.071821 -0.000000 0.000000
RightFoot -19.685974 -22.199361 20.175892
RightToeBase 22.789104 -0.000000 -0.000000
817
root 18.970465 35.721484 -22.519398 -165.773863 -0.154230 -178.280156
Spine -28.791891 -0.200826 1.053681
Head 18.263751 0.472640 3.372386
LeftShoulder -27.520252 -62.559600 67.068668
LeftArm 54.744291 -31.951402 -1.735931
LeftForeArm 2.572626 -0.000000 21.671775
LeftHand -5.385954 0.000000 -22.161583
LeftHandThumb1 -26.253704 0.000000 33.147579
RightShoulder -13.638654 21.144161 -44.385952
RightArm 45.928522 59.705995 -1.351310
RightForeArm -72.983513 -0.000000 40.836743
RightHand -12.293400 0.000000 15.368859
RightHandThumb1 -24.326973 -0.000000 -32.862282
LeftUpLeg -3.852593 7.921604 0.270293
LeftLeg -7.585352 -0.000000 0.000000
LeftFoot -20.705826 28.573341 -16.374094
LeftToeBase 23.503014 -0.000000 -0.000000
RightUpLeg -5.876392 -8.836912 1.633478
RightLeg -4.051549 -0.000000 0.000000
RightFoot -19.674782 -22.170463 20.208328
RightToeBase 22.698438 -0.000000 -0.000000
818
root 18.972177 35.722187 -22.516497 -165.826629 -0.122237 -178.267241
Spine -28.760223 -0.178901 1.048624
Head 18.219569 0.667477 3.544348
LeftShoulder -27.336710 -62.667480 67.083398
LeftArm 54.679308 -31.643630 -1.421399
LeftForeArm 2.242131 -0.000000 21.051371
LeftHand -5.028208 -0.000000 -22.096074
LeftHandThumb1 -26.253704 0.000000 33.147579
RightShoulder -13.466923 21.114051 -44.406817
RightArm 45.795172 59.563928 -1.668911
RightForeArm -72.868383 -0.000000 40.077497
RightHand -12.205384 -0.000000 14.955788
RightHandThumb1 -24.326973 -0.000000 -32.862282
LeftUpLeg -3.797658 7.926822 0.289513
LeftLeg -7.587251 -0.000000 0.000000
LeftFoot -20.726711 28.596875 -16.391028
LeftToeBase 23.567451 -0.000000 -0.000000
RightUpLeg -5.838420 -8.830357 1.638779
RightLeg -4.038510 -0.000000 0.000000
RightFoot -19.665120 -22.152573 20.210483
RightToeBase 22.723538 -0.000000 -0.000000
819
root 18.974103 35.723780 -22.513251 -165.870863 -0.088918 -178.250530
Spine -28.729124 -0.156963 1.039728
Head 18.153975 0.812990 3.716204
LeftShoulder -27.230810 -62.780329 67.198800
LeftArm 54.610168 -31.333859 -1.175863
LeftForeArm 2.048350 -0.000000 20.482933
LeftHand -4.796375 -0.000000 -21.845627
LeftHandThumb1 -26.253704 0.000000 33.147579
RightShoulder -13.316412 21.073772 -44.386941
RightArm 45.645447 59.413229 -2.070230
RightForeArm -72.693149 -0.000000 39.289048
RightHand -12.246925 0.000000 14.569312
RightHandThumb1 -24.326973 -0.000000 -32.862282
LeftUpLeg -3.760202 7.939772 0.309302
LeftLeg -7.573973 -0.000000 0.000000
LeftFoot -20.727628 28.617899 -16.398682
LeftToeBase 23.511461 -0.000000 -0.000000
RightUpLeg -5.811359 -8.825999 1.647668
RightLeg -4.020367 -0.000000 0.000000
RightFoot -19.646896 -22.117589 20.238609
RightToeBase 22.696243 -0.000000 -0.000000
820
root 18.975793 35.725071 -22.509897 -165.923090 -0.051618 -178.241114
Spine -28.682156 -0.141131 1.021989
Head 18.080693 0.892883 3.821358
LeftShoulder -27.146073 -62.874790 67.328621
LeftArm 54.528317 -31.010719 -0.887947
LeftForeArm 1.778207 -0.000000 19.910248
LeftHand -4.480368 0.000000 -21.787986
LeftHandThumb1 -26.253704 0.000000 33.147579
RightShoulder -13.205436 21.160119 -44.423144
RightArm 45.459306 59.112393 -2.471350
RightForeArm -72.400163 -0.000000 38.539707
RightHand -12.189956 -0.000000 13.983117
RightHandThumb1 -24.326973 -0.000000 -32.862282
LeftUpLeg -3.710680 7.958453 0.323268
LeftLeg -7.565708 -0.000000 0.000000
LeftFoot -20.727978 28.621410 -16.405442
LeftToeBase 23.518024 -0.000000 -0.000000
RightUpLeg -5.779105 -8.820267 1.648578
RightLeg -4.000319 -0.000000 0.000000
RightFoot -19.631248 -22.092542 20.233184
RightToeBase 22.739164 -0.000000 -0.000000
821
root 18.977563 35.725910 -22.507146 -165.966711 -0.028317 -178.224005
Spine -28.636630 -0.121107 1.013307
Head 18.028571 1.058713 3.990369
LeftShoulder -27.092784 -63.012072 67.507219
LeftArm 54.430902 -30.669572 -0.631562
LeftForeArm 1.586017 -0.000000 19.366371
LeftHand -4.216765 -0.000000 -21.589700
LeftHandThumb1 -26.253704 0.000000 33.147579
RightShoulder -12.973021 20.870985 -44.308051
RightArm 44.906853 59.207476 -3.327822
RightForeArm -72.095115 -0.000000 37.785216
RightHand -12.119393 0.000000 13.511381
RightHandThumb1 -24.326973 -0.000000 -32.862282
LeftUpLeg -3.676328 7.984494 0.340527
LeftLeg -7.553642 -0.000000 0.000000
LeftFoot -20.740659 28.641857 -16.398958
LeftToeBase 23.543487 -0.000000 -0.000000
RightUpLeg -5.748373 -8.795996 1.657011
RightLeg -3.986758 -0.000000 0.000000
RightFoot -19.624678 -22.082904 20.241061
RightToeBase 22.682304 -0.000000 -0.000000
822
root 18.978545 35.726942 -22.504153 -166.021121 -0.005943 -178.215180
Spine -28.581925 -0.102722 1.005273
Head 17.984793 1.158504 4.062294
LeftShoulder -27.046494 -63.193238 67.691700
LeftArm 54.306443 -30.277345 -0.320595
LeftForeArm 1.280991 -0.000000 18.835074
LeftHand -3.971200 0.000000 -21.464837
LeftHandThumb1 -26.253704 0.000000 33.147579
RightShoulder -12.833871 20.815250 -44.270727
RightArm 44.626556 59.049255 -3.925391
RightForeArm -71.624998 0.000000 36.995382
RightHand -12.115642 0.000000 13.147846
RightHandThumb1 -24.326973 -0.000000 -32.862282
LeftUpLeg -3.629238 7.988641 0.354919
LeftLeg -7.540062 -0.000000 0.000000
LeftFoot -20.743343 28.646531 -16.414194
LeftToeBase 23.485508 -0.000000 -0.000000
RightUpLeg -5.707738 -8.780374 1.654868
RightLeg -3.972622 -0.000000 0.000000
RightFoot -19.618537 -22.076615 20.244411
RightToeBase 22.689429 -0.000000 -0.000000
823
root 18.980276 35.728465 -22.500556 -166.063338 0.008752 -178.208220
Spine -28.548417 -0.084943 0.988793
Head 17.928373 1.220995 4.111548
LeftShoulder -26.933397 -63.353008 67.807810
LeftArm 54.225611 -29.924515 -0.054053
LeftForeArm 1.124974 0.000000 18.291946
LeftHand -3.786154 -0.000000 -21.301727
LeftHandThumb1 -26.253704 0.000000 33.147579
RightShoulder -12.736897 20.812861 -44.292935
RightArm 44.405341 58.801640 -4.392200
RightForeArm -71.319434 -0.000000 36.316970
RightHand -12.038349 -0.000000 12.650685
RightHandThumb1 -24.326973 -0.000000 -32.862282
LeftUpLeg -3.598248 7.986029 0.370613
LeftLeg -7.519264 -0.000000 0.000000
LeftFoot -20.759824 28.644936 -16.442211
LeftToeBase 23.478887 -0.000000 -0.000000
RightUpLeg -5.679379 -8.757567 1.654110
RightLeg -3.957778 -0.000000 0.000000
RightFoot -19.613677 -22.068269 20.315838
RightToeBase 22.600239 -0.000000 -0.000000
